<svg width="60" height="54" viewBox="0 0 60 54" fill="none" xmlns="http://www.w3.org/2000/svg">
<path d="M57.7208 8.6987L33.1625 0.513282C31.1101 -0.171094 28.891 -0.171094 26.8385 0.513282L2.27917 8.6987C1.61549 8.92004 1.03826 9.34456 0.629216 9.91213C0.220171 10.4797 4.268e-05 11.1616 0 11.8612L0 16.9664L27.6062 8.68412C29.1719 8.21537 30.8271 8.21537 32.3958 8.68412L60 16.9664V11.8612C60 10.4268 59.0823 9.15287 57.7208 8.6987ZM28.5646 11.8779L0 20.4477V44.2372C0 45.7997 1.08542 47.1518 2.61042 47.4914L27.8312 53.0956C29.26 53.4133 30.7411 53.4133 32.1698 53.0956L57.3906 47.4914C58.9156 47.1529 60.001 45.7997 60.001 44.2372V20.4466L31.4385 11.8779C30.4969 11.5945 29.5021 11.5945 28.5646 11.8779ZM13.3333 23.9695C13.3333 24.3456 13.0823 24.6747 12.7198 24.7737L4.38646 27.0466C3.85625 27.1904 3.33333 26.7914 3.33333 26.2424V24.5154C3.33333 24.1393 3.58437 23.8102 3.94687 23.7112L12.2802 21.4383C12.8104 21.2935 13.3333 21.6924 13.3333 22.2424V23.9695ZM28.3333 19.8779C28.3333 20.2539 28.0823 20.5831 27.7198 20.682L17.7198 23.4091C17.1896 23.5539 16.6667 23.1549 16.6667 22.6049V20.8779C16.6667 20.5018 16.9177 20.1727 17.2802 20.0737L27.2802 17.3466C27.8104 17.2018 28.3333 17.6008 28.3333 18.1508V19.8779ZM46.6667 22.2424C46.6667 21.6924 47.1896 21.2935 47.7198 21.4383L56.0531 23.7112C56.4156 23.8102 56.6667 24.1393 56.6667 24.5154V26.2424C56.6667 26.7924 56.1437 27.1914 55.6135 27.0466L47.2802 24.7737C47.1039 24.7255 46.9483 24.6207 46.8374 24.4754C46.7265 24.3301 46.6665 24.1523 46.6667 23.9695V22.2424ZM31.6667 18.1518C31.6667 17.6018 32.1896 17.2029 32.7198 17.3477L42.7198 20.0747C43.0823 20.1737 43.3333 20.5029 43.3333 20.8789V22.606C43.3333 23.156 42.8104 23.5549 42.2802 23.4102L32.2802 20.6831C32.1039 20.6349 31.9483 20.5301 31.8374 20.3848C31.7265 20.2394 31.6665 20.0617 31.6667 19.8789V18.1518Z" fill="white"/>
</svg>
