<svg width="31" height="60" viewBox="0 0 31 60" fill="none" xmlns="http://www.w3.org/2000/svg">
<path d="M28.7992 27.1777C28.9339 27.1777 29.0432 27.0762 29.0432 26.9508V26.2547H29.7671C29.9018 26.2547 30.0111 26.1532 30.0111 26.0278V24.5604C30.0111 24.435 29.9018 24.3335 29.7671 24.3335H25.8397C25.2148 20.1018 19.3094 17.5145 16.5981 16.5406C16.6404 16.4205 16.6638 16.2929 16.6638 16.1601C16.6638 15.6449 16.3208 15.2021 15.8289 15.0033C16.0042 14.8613 16.1152 14.6563 16.1152 14.4275C16.1152 14.1258 15.9229 13.8644 15.6425 13.7361L15.5155 12.7975C16.061 12.6843 16.4688 12.2323 16.4688 11.6908V11.6152C16.4688 10.9885 15.9228 10.4805 15.2489 10.4805C14.575 10.4805 14.029 10.9885 14.029 11.6152V11.6908C14.029 12.2323 14.4369 12.6843 14.9823 12.7975L14.8553 13.7361C14.5747 13.8646 14.3826 14.1258 14.3826 14.4275C14.3826 14.6563 14.4935 14.8611 14.6685 15.0033C14.1772 15.202 13.834 15.6448 13.834 16.1601C13.834 16.2928 13.8574 16.4205 13.8997 16.5406C11.1882 17.5145 5.28281 20.1018 4.65806 24.3335H0.730308C0.595631 24.3335 0.486328 24.435 0.486328 24.5604V26.0278C0.486328 26.1532 0.595631 26.2547 0.730308 26.2547H1.45428V26.9508C1.45428 27.0762 1.56358 27.1777 1.69826 27.1777H2.23029V51.7296H1.69826C1.56358 51.7296 1.45428 51.8311 1.45428 51.9565V52.6522H0.730308C0.595631 52.6522 0.486328 52.7537 0.486328 52.8791V54.3469C0.486328 54.4723 0.595631 54.5739 0.730308 54.5739H5.93813C8.79595 58.2033 15.249 60.0002 15.249 60.0002C15.249 60.0002 21.7021 58.2033 24.56 54.5739H29.7675C29.9021 54.5739 30.0114 54.4723 30.0114 54.3469V52.8791C30.0114 52.7537 29.9021 52.6522 29.7675 52.6522H29.0435V51.9565C29.0435 51.8311 28.9342 51.7296 28.7995 51.7296H28.2676V27.1777H28.7992ZM9.23853 50.1761H4.88024V34.583C4.88024 30.8422 7.05914 28.3908 7.05914 28.3908C7.05914 28.3908 9.23836 30.8422 9.23836 34.583V50.1761H9.23853ZM19.0467 50.1761H11.4506V34.583C11.4506 30.8422 15.2489 28.3908 15.2489 28.3908C15.2489 28.3908 19.0468 30.8422 19.0468 34.583V50.1761H19.0467ZM25.6172 50.1761H21.2589V34.583C21.2589 30.8422 23.4378 28.3908 23.4378 28.3908C23.4378 28.3908 25.617 30.8422 25.617 34.583V50.1761H25.6172Z" fill="white"/>
<path d="M15.2487 5.90872C15.9226 5.90872 16.4686 5.40068 16.4686 4.77403V4.62834C16.4686 4.00169 15.9226 3.49365 15.2487 3.49365C14.5748 3.49365 14.0288 4.00169 14.0288 4.62834V4.77403C14.0288 5.40053 14.5748 5.90872 15.2487 5.90872Z" fill="white"/>
<path d="M15.2487 2.41491C15.9226 2.41491 16.4686 1.90703 16.4686 1.28023V1.13468C16.4686 0.508036 15.9226 0 15.2487 0C14.5748 0 14.0288 0.508036 14.0288 1.13468V1.28023C14.0288 1.90688 14.5748 2.41491 15.2487 2.41491Z" fill="white"/>
<path d="M15.2487 9.40222C15.9226 9.40222 16.4686 8.89418 16.4686 8.26753V8.12199C16.4686 7.49534 15.9226 6.9873 15.2487 6.9873C14.5748 6.9873 14.0288 7.49534 14.0288 8.12199V8.26753C14.0288 8.89403 14.5748 9.40222 15.2487 9.40222Z" fill="white"/>
</svg>
