<svg width="49" height="60" viewBox="0 0 49 60" fill="none" xmlns="http://www.w3.org/2000/svg">
<path d="M31.5543 4.25906V25.0836C31.5543 25.459 31.5543 29.7217 31.5543 30.1099C31.5543 31.7505 32.0523 34.4679 34.7623 32.5214L40.4368 25.785C42.1634 23.7342 45.2249 23.4742 47.2721 25.1972C49.3229 26.9257 49.5847 29.9854 47.8616 32.0361L36.4359 45.6042C34.1709 48.4057 32.554 50.0134 30.3733 52.3754C26.4658 56.6126 22.8787 60 16.7136 60C7.80004 60 0.574726 52.7747 0.574726 43.8611V23.4961C0.574726 21.1432 2.4809 19.237 4.83191 19.237C6.1027 19.237 7.22875 19.8028 8.01062 20.6854V20.0207C8.01062 17.6695 9.91492 15.7635 12.2678 15.7635C13.588 15.7635 14.7508 16.3751 15.5325 17.3181C15.9317 15.3809 17.6455 13.9215 19.7018 13.9215C21.0623 13.9215 22.2598 14.5716 23.038 15.564V4.25906C23.038 1.90793 24.9442 0 27.2952 0C29.6463 0 31.5543 1.90793 31.5543 4.25906Z" fill="white"/>
</svg>
