<svg width="477" height="612" viewBox="0 0 477 612" fill="none" xmlns="http://www.w3.org/2000/svg">
<g filter="url(#filter0_d_2010_56)">
<path d="M330.442 116.305L330.595 116.444V116.165L423.31 31.9082L330.595 0.105196V0L330.442 0.0525981L330.289 0.000106812V0.105089L237.574 31.9081L330.289 116.165V116.444L330.442 116.305Z" fill="white"/>
<path d="M82.969 242.916L92.5123 252.439L54.3391 301.959L94.421 349.574L84.8777 359.097H50.5217L4.71387 301.959L48.6131 242.916H82.969Z" fill="white"/>
<path d="M65.791 301.959L100.147 258.153L145.955 300.054L100.147 343.86L65.791 301.959Z" fill="white"/>
<path d="M153.589 294.341L107.782 252.439C107.145 250.535 107.018 245.964 111.599 242.916H174.585V273.39L153.589 294.341Z" fill="white"/>
<path d="M153.589 305.768L176.493 326.719V359.097H113.508C108.927 356.05 107.782 351.479 107.782 349.574L153.589 305.768Z" fill="white"/>
<path d="M174.585 233.393V172.446L117.325 181.969L109.69 233.393H174.585Z" fill="white"/>
<path d="M172.676 151.495V162.923L109.69 174.351L100.147 235.298H86.7863L61.9737 212.443L73.4257 140.068L147.864 128.64L172.676 151.495Z" fill="white"/>
<path d="M176.493 366.716H111.599L121.142 420.044L176.493 426.949V366.716Z" fill="white"/>
<path d="M88.695 368.62H102.056L113.508 427.663L178.402 437.186V448.614L153.589 473.373L77.243 461.946L63.8824 391.475L88.695 368.62Z" fill="white"/>
<path d="M241.388 387.666L218.484 366.716H186.037V425.758C187.945 427.901 192.908 431.663 197.489 429.568L241.388 387.666Z" fill="white"/>
<path d="M184.128 233.393H216.575L239.479 210.538L193.671 170.541C192.144 169.018 186.673 172.446 184.128 174.351V233.393Z" fill="white"/>
<path d="M255.629 58.035L256.201 71.4905L194.516 82.1869L191.751 144.31L178.267 144.881L152.967 121.687L157.972 48.6852L230.329 34.8415L255.629 58.035Z" fill="white"/>
<path d="M202.95 89.918L257.949 80.8523L263.275 142.634L199.842 143.968L202.95 89.918Z" fill="white"/>
<path d="M272.771 143.58L267.445 81.7987C268.268 79.9667 271.273 76.5146 276.713 77.3629L323.096 119.884L302.436 142.326L272.771 143.58Z" fill="white"/>
<path d="M265.023 151.995L267.686 182.886L245.734 206.73L199.351 164.208C198.043 158.872 200.299 154.733 201.59 153.33L265.023 151.995Z" fill="white"/>
<path d="M264.346 527.295L264.174 540.762L239.573 564.692L166.837 552.99L159.67 480.168L184.271 456.238L197.766 456.41L202.372 518.424L264.346 527.295Z" fill="white"/>
<path d="M265.817 517.886L210.573 510.448L205.864 456.513L269.308 455.974L265.817 517.886Z" fill="white"/>
<path d="M275.28 516.66L278.772 454.748L308.461 455.126L329.778 476.948L284.675 520.82C279.264 521.828 276.157 518.467 275.28 516.66Z" fill="white"/>
<path d="M272.524 415.609L270.778 446.565L207.334 447.104C206.001 445.74 203.624 441.669 204.772 436.296L249.875 392.424L272.524 415.609Z" fill="white"/>
<path d="M330.857 463.587L331.095 463.851V463.323L347.797 444.805H380.244V412.427L435.595 359.098H477.586V321.006L502.399 298.151L477.586 277.2V241.012H439.413L385.97 187.683V151.496H357.34L331.095 123.436V122.927L330.857 123.181L330.619 122.927V123.436L304.374 151.496H275.744V187.683L222.301 241.012H184.128V277.2L159.315 298.15L184.128 321.006V359.098H226.118L281.47 412.427V444.805H313.917L330.619 463.323V463.851L330.857 463.587Z" fill="white"/>
<path d="M330.289 490.111L245.879 573.102L287.407 603.767L373.477 603.767L415.005 573.102L330.595 490.111V489.81L330.442 489.96L330.289 489.81V490.111Z" fill="white"/>
<path d="M578.745 242.916L569.202 252.439L607.375 301.959L567.293 349.574L576.836 359.097H611.192L657 301.959L613.101 242.916H578.745Z" fill="white"/>
<path d="M595.923 301.959L561.567 258.153L515.759 300.055L561.567 343.86L595.923 301.959Z" fill="white"/>
<path d="M508.124 294.341L553.932 252.439C554.568 250.535 554.696 245.964 550.115 242.916H487.129V273.39L508.124 294.341Z" fill="white"/>
<path d="M508.124 305.768L485.22 326.719V359.097H548.206C552.787 356.05 553.932 351.479 553.932 349.574L508.124 305.768Z" fill="white"/>
<path d="M487.129 233.393V172.446L544.389 181.969L552.024 233.393H487.129Z" fill="white"/>
<path d="M489.038 151.495V162.923L552.024 174.351L561.567 235.298H574.928L599.74 212.443L588.288 140.068L513.85 128.64L489.038 151.495Z" fill="white"/>
<path d="M485.22 366.716H550.115L540.572 420.045L485.22 426.949V366.716Z" fill="white"/>
<path d="M573.019 368.62H559.658L548.206 427.663L483.312 437.186V448.614L508.124 473.374L584.471 461.946L597.831 391.476L573.019 368.62Z" fill="white"/>
<path d="M420.326 387.666L443.23 366.716H475.677V425.758C473.768 427.901 468.806 431.663 464.225 429.568L420.326 387.666Z" fill="white"/>
<path d="M477.586 233.393H445.139L422.235 210.538L468.042 170.542C469.569 169.018 475.041 172.446 477.586 174.351V233.393Z" fill="white"/>
<path d="M406.084 58.0351L405.513 71.4906L467.197 82.187L469.962 144.31L483.447 144.881L508.747 121.687L503.742 48.6853L431.385 34.8416L406.084 58.0351Z" fill="white"/>
<path d="M458.764 89.9182L403.765 80.8524L398.439 142.634L461.872 143.968L458.764 89.9182Z" fill="white"/>
<path d="M388.943 143.58L394.269 81.7988C393.446 79.9668 390.44 76.5147 385.001 77.363L338.617 119.884L359.278 142.326L388.943 143.58Z" fill="white"/>
<path d="M396.691 151.996L394.028 182.886L415.98 206.73L462.363 164.209C463.67 158.872 461.415 154.733 460.123 153.33L396.691 151.996Z" fill="white"/>
<path d="M397.367 527.295L397.539 540.762L422.141 564.692L494.877 552.991L502.044 480.168L477.442 456.238L463.947 456.41L459.342 518.425L397.367 527.295Z" fill="white"/>
<path d="M395.897 517.886L451.141 510.448L455.85 456.513L392.405 455.975L395.897 517.886Z" fill="white"/>
<path d="M386.433 516.66L382.942 454.748L353.252 455.126L331.936 476.948L377.038 520.82C382.45 521.829 385.556 518.467 386.433 516.66Z" fill="white"/>
<path d="M389.19 415.609L390.935 446.565L454.38 447.104C455.712 445.74 458.09 441.669 456.941 436.296L411.839 392.424L389.19 415.609Z" fill="white"/>
</g>
<defs>
<filter id="filter0_d_2010_56" x="0.713867" y="0" width="660.286" height="611.767" filterUnits="userSpaceOnUse" color-interpolation-filters="sRGB">
<feFlood flood-opacity="0" result="BackgroundImageFix"/>
<feColorMatrix in="SourceAlpha" type="matrix" values="0 0 0 0 0 0 0 0 0 0 0 0 0 0 0 0 0 0 127 0" result="hardAlpha"/>
<feOffset dy="4"/>
<feGaussianBlur stdDeviation="2"/>
<feComposite in2="hardAlpha" operator="out"/>
<feColorMatrix type="matrix" values="0 0 0 0 0 0 0 0 0 0 0 0 0 0 0 0 0 0 0.25 0"/>
<feBlend mode="normal" in2="BackgroundImageFix" result="effect1_dropShadow_2010_56"/>
<feBlend mode="normal" in="SourceGraphic" in2="effect1_dropShadow_2010_56" result="shape"/>
</filter>
</defs>
</svg>
