<svg width="466" height="508" viewBox="0 0 466 508" fill="none" xmlns="http://www.w3.org/2000/svg">
<mask id="mask0_229_349" style="mask-type:alpha" maskUnits="userSpaceOnUse" x="0" y="0" width="466" height="508">
<path fill-rule="evenodd" clip-rule="evenodd" d="M403.276 222.368L410.094 215.445H434.638L466 258.371L433.274 299.913H408.73L401.912 292.989L430.547 258.371L403.276 222.368ZM397.821 226.522L422.366 258.371L397.821 288.835L365.096 256.986L397.821 226.522ZM392.367 222.368L359.642 252.832L344.642 237.6V215.445H389.64C392.913 217.66 392.822 220.984 392.367 222.368ZM343.279 276.373L359.642 261.141L392.367 292.989C392.367 294.374 391.549 297.697 388.277 299.913H343.279V276.373ZM344.642 164.21V208.521L391.004 208.521L385.549 171.133L344.642 164.21ZM346.006 157.286V148.978L363.732 132.361L416.911 140.669L425.093 193.289L407.366 209.906H397.821L391.004 165.595L346.006 157.286ZM389.64 305.452H343.279V349.244L382.822 344.224L389.64 305.452ZM396.458 306.837H406.003L423.729 323.453L414.184 374.688L359.642 382.996L341.915 364.995V356.687L388.277 349.763L396.458 306.837ZM313.28 305.452L296.917 320.684L328.279 351.148C331.552 352.671 335.097 349.936 336.461 348.378V305.452H313.28ZM314.644 208.521H337.824V165.595C336.006 164.21 332.097 161.717 331.007 162.825L298.281 191.904L314.644 208.521ZM286.335 90.8116L286.743 81.0289L304.818 64.1663L356.511 74.2312L360.086 127.307L342.012 144.169L332.378 143.755L330.403 98.5883L286.335 90.8116ZM285.086 97.618L324.378 104.209L326.598 143.506L281.281 142.536L285.086 97.618ZM278.302 98.3061L274.497 143.224L253.304 142.312L238.544 125.996L271.681 95.0811C275.567 94.4643 277.714 96.9741 278.302 98.3061ZM278.13 171.801L280.032 149.342L325.349 150.312C326.272 151.332 327.883 154.341 326.949 158.221L293.812 189.136L278.13 171.801ZM280.639 431.989L280.516 422.199L324.791 415.749L328.081 370.662L337.722 370.537L355.298 387.935L350.178 440.88L298.214 449.388L280.639 431.989ZM318.932 409.95L279.465 415.358L276.971 370.346L322.296 370.737L318.932 409.95ZM270.21 369.454L272.704 414.466C272.078 415.78 269.859 418.224 265.992 417.491L233.771 385.594L248.999 369.729L270.21 369.454ZM275.921 363.505L274.673 340.998L290.854 324.142L323.076 356.039C323.896 359.945 322.198 362.905 321.246 363.896L275.921 363.505ZM232.83 376.072L245.102 362.225H268.283V338.685L307.826 299.912H337.825V272.218L355.551 255.601L337.825 240.369V214.059H310.553L272.373 175.287V148.977H251.92L232.83 128.206L232.83 376.072Z" fill="#DD2929"/>
<path fill-rule="evenodd" clip-rule="evenodd" d="M62.7242 222.368L55.9064 215.445H31.3621L0 258.371L32.7257 299.913H57.2699L64.0878 292.989L35.4528 258.371L62.7242 222.368ZM68.1785 226.522L43.6342 258.371L68.1785 288.835L100.904 256.986L68.1785 226.522ZM73.6328 222.368L106.358 252.832L121.358 237.6V215.445H76.3599C73.0874 217.66 73.1783 220.984 73.6328 222.368ZM122.721 276.373L106.358 261.141L73.6328 292.989C73.6328 294.374 74.4509 297.697 77.7235 299.913H122.721V276.373ZM121.358 164.21L121.358 208.521L74.9964 208.521L80.4506 171.133L121.358 164.21ZM119.994 157.286V148.978L102.268 132.361L49.0885 140.669L40.9071 193.289L58.6335 209.906H68.1785L74.9964 165.595L119.994 157.286ZM76.3599 305.452H122.721L122.721 349.244L83.1778 344.224L76.3599 305.452ZM69.5421 306.837H59.9971L42.2707 323.453L51.8157 374.688L106.358 382.996L124.085 364.995V356.687L77.7235 349.763L69.5421 306.837ZM152.72 305.452L169.083 320.684L137.721 351.148C134.448 352.671 130.903 349.936 129.539 348.378V305.452H152.72ZM151.356 208.521H128.176V165.595C129.994 164.21 133.903 161.717 134.993 162.825L167.719 191.904L151.356 208.521ZM179.665 90.8116L179.257 81.0289L161.182 64.1663L109.489 74.2312L105.914 127.307L123.988 144.169L133.622 143.755L135.597 98.5883L179.665 90.8116ZM180.914 97.618L141.622 104.209L139.402 143.506L184.719 142.536L180.914 97.618ZM187.698 98.3061L191.503 143.224L212.696 142.312L227.456 125.996L194.319 95.0811C190.433 94.4643 188.286 96.9741 187.698 98.3061ZM187.87 171.801L185.968 149.342L140.651 150.312C139.728 151.332 138.117 154.341 139.051 158.221L172.188 189.136L187.87 171.801ZM185.361 431.989L185.484 422.199L141.209 415.749L137.919 370.662L128.278 370.537L110.702 387.935L115.822 440.88L167.786 449.388L185.361 431.989ZM147.068 409.95L186.535 415.358L189.029 370.346L143.704 370.737L147.068 409.95ZM195.79 369.454L193.296 414.466C193.922 415.78 196.141 418.224 200.008 417.491L232.229 385.594L217.001 369.729L195.79 369.454ZM190.079 363.505L191.327 340.998L175.146 324.142L142.924 356.039C142.104 359.945 143.802 362.905 144.754 363.896L190.079 363.505ZM233.17 376.072L220.898 362.225H197.717V338.685L158.174 299.912H128.175V272.218L110.449 255.601L128.175 240.369V214.059H155.447L193.627 175.287V148.977H214.08L233.17 128.206L233.17 376.072Z" fill="#DD2929"/>
<path d="M175.195 451.887L232.111 396.465L290.806 451.887L232.111 508L175.195 451.887Z" fill="#DD2929"/>
<path d="M167.635 60.96L232.111 0L297.03 60.96L232.111 119.211L167.635 60.96Z" fill="#DD2929"/>
</mask>
<g mask="url(#mask0_229_349)">
<path d="M133.842 144.95H124.949L105.829 127.339L108.941 73.604L160.966 63.2183L180.086 81.732L181.42 91.6663L136.065 99.3427L133.842 144.95Z" fill="#081E3D" stroke="#081E3D"/>
<path d="M75.5919 165.721L68.9221 209.974H57.8057L40.9087 194.169L48.9125 139.982L103.161 131.854L120.502 149.465V157.593L75.5919 165.721Z" fill="#081E3D" stroke="#081E3D"/>
<path d="M65.8092 292.61L57.3607 301.19L32.0153 299.835L-2.66797 257.84L31.126 214.942H55.1374L63.5859 223.07L36.9065 257.84L65.8092 292.61Z" fill="#081E3D"/>
<path d="M41.3531 323.767L59.584 306.157H70.2558L78.2596 349.958L124.059 356.279V365.31L105.828 383.373L51.5802 375.245L41.3531 323.767Z" fill="#081E3D"/>
<path d="M185.422 432.592L168.08 450.203L115.166 441.623L109.83 388.791L128.506 370.729H138.288L142.735 415.433L186.311 420.4L185.422 432.592Z" fill="#081E3D"/>
<path d="M65.8092 292.61L57.3607 301.19L32.0153 299.835L-2.66797 257.84L31.126 214.942H55.1374L63.5859 223.07L36.9065 257.84L65.8092 292.61Z" stroke="#081E3D"/>
<path d="M41.3531 323.767L59.584 306.157H70.2558L78.2596 349.958L124.059 356.279V365.31L105.828 383.373L51.5802 375.245L41.3531 323.767Z" stroke="#081E3D"/>
<path d="M185.422 432.592L168.08 450.203L115.166 441.623L109.83 388.791L128.506 370.729H138.288L142.735 415.433L186.311 420.4L185.422 432.592Z" stroke="#081E3D"/>
</g>
</svg>
