<svg width="466" height="508" viewBox="0 0 466 508" fill="none" xmlns="http://www.w3.org/2000/svg">
<mask id="mask0_402_42" style="mask-type:alpha" maskUnits="userSpaceOnUse" x="0" y="0" width="466" height="508">
<path fill-rule="evenodd" clip-rule="evenodd" d="M403.276 222.369L410.094 215.445H434.638L466 258.371L433.274 299.913H408.73L401.912 292.99L430.547 258.371L403.276 222.369ZM397.822 226.523L422.366 258.371L397.822 288.835L365.096 256.987L397.822 226.523ZM392.367 222.369L359.642 252.833L344.642 237.601V215.445H389.64C392.913 217.661 392.822 220.984 392.367 222.369ZM343.279 276.373L359.642 261.141L392.367 292.99C392.367 294.374 391.549 297.698 388.277 299.913H343.279V276.373ZM344.642 164.21V208.521L391.004 208.521L385.549 171.134L344.642 164.21ZM346.006 157.286V148.978L363.732 132.361L416.912 140.67L425.093 193.289L407.367 209.906H397.822L391.004 165.595L346.006 157.286ZM389.64 305.452H343.279V349.244L382.822 344.225L389.64 305.452ZM396.458 306.837H406.003L423.729 323.454L414.184 374.689L359.642 382.997L341.915 364.995V356.687L388.277 349.763L396.458 306.837ZM313.28 305.452L296.917 320.684L328.28 351.148C331.552 352.671 335.097 349.937 336.461 348.379V305.452H313.28ZM314.644 208.521H337.825V165.595C336.006 164.21 332.098 161.718 331.007 162.825L298.281 191.905L314.644 208.521ZM286.335 90.8119L286.743 81.0292L304.818 64.1665L356.511 74.2315L360.086 127.307L342.012 144.17L332.378 143.755L330.403 98.5886L286.335 90.8119ZM285.086 97.6183L324.378 104.21L326.598 143.506L281.281 142.536L285.086 97.6183ZM278.302 98.3064L274.497 143.224L253.304 142.312L238.544 125.996L271.681 95.0814C275.567 94.4646 277.714 96.9744 278.302 98.3064ZM278.13 171.801L280.032 149.342L325.349 150.313C326.272 151.332 327.883 154.342 326.949 158.222L293.812 189.137L278.13 171.801ZM280.639 431.99L280.516 422.199L324.791 415.75L328.081 370.663L337.722 370.538L355.298 387.936L350.178 440.881L298.214 449.388L280.639 431.99ZM318.932 409.95L279.465 415.358L276.971 370.346L322.297 370.738L318.932 409.95ZM270.21 369.454L272.704 414.467C272.078 415.78 269.859 418.225 265.993 417.491L233.771 385.594L249 369.729L270.21 369.454ZM275.921 363.505L274.674 340.999L290.854 324.142L323.076 356.039C323.897 359.945 322.198 362.905 321.246 363.897L275.921 363.505ZM232.83 376.073L245.102 362.225H268.283V338.685L307.826 299.913H337.825V272.218L355.551 255.601L337.825 240.369V214.06H310.553L272.374 175.287V148.977H251.92L232.83 128.207L232.83 376.073Z" fill="#DD2929"/>
<path fill-rule="evenodd" clip-rule="evenodd" d="M62.7242 222.369L55.9064 215.445H31.3621L0 258.372L32.7257 299.913H57.2699L64.0878 292.99L35.4528 258.372L62.7242 222.369ZM68.1785 226.523L43.6342 258.372L68.1785 288.836L100.904 256.987L68.1785 226.523ZM73.6328 222.369L106.358 252.833L121.358 237.601V215.445H76.3599C73.0874 217.661 73.1783 220.984 73.6328 222.369ZM122.721 276.373L106.358 261.141L73.6328 292.99C73.6328 294.374 74.4509 297.698 77.7235 299.913H122.721V276.373ZM121.358 164.21L121.358 208.521L74.9964 208.521L80.4506 171.134L121.358 164.21ZM119.994 157.287V148.978L102.268 132.362L49.0885 140.67L40.9071 193.289L58.6335 209.906H68.1785L74.9964 165.595L119.994 157.287ZM76.3599 305.452H122.721L122.721 349.244L83.1778 344.225L76.3599 305.452ZM69.5421 306.837H59.9971L42.2707 323.454L51.8157 374.689L106.358 382.997L124.085 364.995V356.687L77.7235 349.763L69.5421 306.837ZM152.72 305.452L169.083 320.684L137.721 351.148C134.448 352.671 130.903 349.937 129.539 348.379V305.452H152.72ZM151.356 208.521H128.176V165.595C129.994 164.21 133.903 161.718 134.993 162.826L167.719 191.905L151.356 208.521ZM179.665 90.812L179.257 81.0293L161.182 64.1667L109.489 74.2316L105.914 127.307L123.988 144.17L133.622 143.755L135.597 98.5887L179.665 90.812ZM180.914 97.6185L141.622 104.21L139.402 143.506L184.719 142.536L180.914 97.6185ZM187.698 98.3065L191.503 143.224L212.696 142.312L227.456 125.996L194.319 95.0815C190.433 94.4648 188.286 96.9745 187.698 98.3065ZM187.87 171.801L185.968 149.342L140.651 150.313C139.728 151.332 138.117 154.342 139.051 158.222L172.188 189.137L187.87 171.801ZM185.361 431.99L185.484 422.199L141.209 415.75L137.919 370.663L128.278 370.538L110.702 387.936L115.822 440.881L167.786 449.388L185.361 431.99ZM147.068 409.95L186.535 415.358L189.029 370.346L143.704 370.738L147.068 409.95ZM195.79 369.454L193.296 414.467C193.922 415.78 196.141 418.225 200.008 417.491L232.229 385.594L217.001 369.729L195.79 369.454ZM190.079 363.505L191.327 340.999L175.146 324.142L142.924 356.039C142.104 359.945 143.802 362.905 144.754 363.897L190.079 363.505ZM233.17 376.073L220.898 362.225H197.717V338.685L158.174 299.913H128.175V272.218L110.449 255.601L128.175 240.369V214.06H155.447L193.627 175.287V148.978H214.08L233.17 128.207L233.17 376.073Z" fill="#DD2929"/>
<path d="M175.195 451.887L232.111 396.465L290.806 451.887L232.111 508L175.195 451.887Z" fill="#DD2929"/>
<path d="M167.635 60.96L232.11 -3.8147e-06L297.03 60.96L232.11 119.211L167.635 60.96Z" fill="#DD2929"/>
</mask>
<g mask="url(#mask0_402_42)">
<path fill-rule="evenodd" clip-rule="evenodd" d="M403.276 222.369L410.094 215.445H434.638L466 258.372L433.274 299.913H408.73L401.912 292.99L430.547 258.372L403.276 222.369ZM397.822 226.523L422.366 258.372L397.822 288.835L365.096 256.987L397.822 226.523ZM392.367 222.369L359.642 252.833L344.642 237.601V215.445H389.64C392.913 217.661 392.822 220.984 392.367 222.369ZM343.279 276.373L359.642 261.141L392.367 292.99C392.367 294.374 391.549 297.698 388.277 299.913H343.279V276.373ZM344.642 164.21V208.521L391.004 208.521L385.549 171.134L344.642 164.21ZM346.006 157.286V148.978L363.732 132.361L416.912 140.67L425.093 193.289L407.367 209.906H397.822L391.004 165.595L346.006 157.286ZM389.64 305.452H343.279V349.244L382.822 344.225L389.64 305.452ZM396.458 306.837H406.003L423.729 323.454L414.184 374.688L359.642 382.997L341.915 364.995V356.687L388.277 349.763L396.458 306.837ZM313.28 305.452L296.917 320.684L328.28 351.148C331.552 352.671 335.097 349.937 336.461 348.379V305.452H313.28ZM314.644 208.521H337.825V165.595C336.006 164.21 332.098 161.718 331.007 162.825L298.281 191.905L314.644 208.521ZM286.335 90.8119L286.743 81.0292L304.818 64.1665L356.511 74.2315L360.086 127.307L342.012 144.17L332.378 143.755L330.403 98.5886L286.335 90.8119ZM285.086 97.6183L324.378 104.21L326.598 143.506L281.281 142.536L285.086 97.6183ZM278.302 98.3064L274.497 143.224L253.304 142.312L238.544 125.996L271.681 95.0814C275.567 94.4646 277.714 96.9744 278.302 98.3064ZM278.13 171.801L280.032 149.342L325.349 150.313C326.272 151.332 327.883 154.342 326.949 158.222L293.812 189.137L278.13 171.801ZM280.639 431.99L280.516 422.199L324.791 415.75L328.081 370.663L337.722 370.538L355.298 387.936L350.178 440.881L298.214 449.388L280.639 431.99ZM318.932 409.95L279.465 415.358L276.971 370.346L322.297 370.738L318.932 409.95ZM270.21 369.454L272.704 414.467C272.078 415.78 269.859 418.225 265.993 417.491L233.771 385.594L249 369.729L270.21 369.454ZM275.921 363.505L274.674 340.999L290.854 324.142L323.076 356.039C323.897 359.945 322.198 362.905 321.246 363.897L275.921 363.505ZM232.83 376.073L245.102 362.225H268.283V338.685L307.826 299.913H337.825V272.218L355.551 255.601L337.825 240.369V214.06H310.553L272.374 175.287V148.977H251.92L232.83 128.207L232.83 376.073Z" fill="#DD2929"/>
<path fill-rule="evenodd" clip-rule="evenodd" d="M62.7242 222.369L55.9064 215.445H31.3621L0 258.372L32.7257 299.913H57.2699L64.0878 292.99L35.4528 258.372L62.7242 222.369ZM68.1785 226.523L43.6342 258.372L68.1785 288.836L100.904 256.987L68.1785 226.523ZM73.6328 222.369L106.358 252.833L121.358 237.601V215.445H76.3599C73.0874 217.661 73.1783 220.984 73.6328 222.369ZM122.721 276.373L106.358 261.141L73.6328 292.99C73.6328 294.374 74.4509 297.698 77.7235 299.913H122.721V276.373ZM121.358 164.21L121.358 208.521L74.9964 208.521L80.4506 171.134L121.358 164.21ZM119.994 157.287V148.978L102.268 132.362L49.0885 140.67L40.9071 193.289L58.6335 209.906H68.1785L74.9964 165.595L119.994 157.287ZM76.3599 305.452H122.721L122.721 349.244L83.1778 344.225L76.3599 305.452ZM69.5421 306.837H59.9971L42.2707 323.454L51.8157 374.689L106.358 382.997L124.085 364.995V356.687L77.7235 349.763L69.5421 306.837ZM152.72 305.452L169.083 320.684L137.721 351.148C134.448 352.671 130.903 349.937 129.539 348.379V305.452H152.72ZM151.356 208.521H128.176V165.595C129.994 164.21 133.903 161.718 134.993 162.826L167.719 191.905L151.356 208.521ZM179.665 90.812L179.257 81.0293L161.182 64.1667L109.489 74.2316L105.914 127.307L123.988 144.17L133.622 143.755L135.597 98.5887L179.665 90.812ZM180.914 97.6185L141.622 104.21L139.402 143.506L184.719 142.536L180.914 97.6185ZM187.698 98.3065L191.503 143.224L212.696 142.312L227.456 125.996L194.319 95.0815C190.433 94.4648 188.286 96.9745 187.698 98.3065ZM187.87 171.801L185.968 149.342L140.651 150.313C139.728 151.332 138.117 154.342 139.051 158.222L172.188 189.137L187.87 171.801ZM185.361 431.99L185.484 422.199L141.209 415.75L137.919 370.663L128.278 370.538L110.702 387.936L115.822 440.881L167.786 449.388L185.361 431.99ZM147.068 409.95L186.535 415.358L189.029 370.346L143.704 370.738L147.068 409.95ZM195.79 369.454L193.296 414.467C193.922 415.78 196.141 418.225 200.008 417.491L232.229 385.594L217.001 369.729L195.79 369.454ZM190.079 363.505L191.327 340.999L175.146 324.142L142.924 356.039C142.104 359.945 143.802 362.905 144.754 363.897L190.079 363.505ZM233.17 376.073L220.898 362.225H197.717V338.685L158.174 299.913H128.175V272.218L110.449 255.601L128.175 240.369V214.06H155.447L193.627 175.287V148.978H214.08L233.17 128.207L233.17 376.073Z" fill="#DD2929"/>
<path d="M175.195 451.887L232.111 396.465L290.806 451.887L232.111 508L175.195 451.887Z" fill="#DD2929"/>
<path d="M167.635 60.96L232.11 -3.8147e-06L297.03 60.96L232.11 119.211L167.635 60.96Z" fill="#DD2929"/>
<path d="M133.842 144.95H124.949L105.829 127.339L108.941 73.6041L160.966 63.2184L180.086 81.7321L181.42 91.6664L136.065 99.3428L133.842 144.95Z" fill="#081E3D"/>
<path fill-rule="evenodd" clip-rule="evenodd" d="M161.125 62.6767L180.559 81.4936L181.98 92.0787L136.545 99.7687L134.318 145.45H124.754L105.316 127.547L108.464 73.1895L161.125 62.6767ZM109.418 74.0188L106.341 127.132L125.144 144.45H133.366L135.585 98.9169L180.86 91.254L179.614 81.9706L160.807 63.76L109.418 74.0188Z" fill="#081E3D"/>
<path d="M75.5921 165.721L68.9222 209.973H57.8058L40.9088 194.169L48.9127 139.982L103.161 131.854L120.502 149.465V157.593L75.5921 165.721Z" fill="#081E3D"/>
<path fill-rule="evenodd" clip-rule="evenodd" d="M103.338 131.322L121.002 149.26V158.011L76.0332 166.149L69.3525 210.473H57.6084L40.3759 194.355L48.4722 139.543L103.338 131.322ZM49.3532 140.422L41.4418 193.983L58.0032 209.473H68.4919L75.151 165.293L120.002 157.175V149.67L102.983 132.387L49.3532 140.422Z" fill="#081E3D"/>
<path d="M65.8093 292.61L57.3608 301.189L32.0154 299.835L-2.66787 257.84L31.1261 214.942H55.1375L63.586 223.07L36.9066 257.84L65.8093 292.61Z" fill="#081E3D"/>
<path d="M41.3532 323.767L59.5841 306.156H70.2559L78.2597 349.957L124.059 356.279V365.31L105.828 383.372L51.5803 375.244L41.3532 323.767Z" fill="#081E3D"/>
<path d="M185.422 432.592L168.08 450.203L115.166 441.623L109.83 388.791L128.506 370.729H138.288L142.735 415.433L186.311 420.4L185.422 432.592Z" fill="#081E3D"/>
<path fill-rule="evenodd" clip-rule="evenodd" d="M30.8834 214.442H55.339L64.2549 223.02L37.5464 257.828L66.4831 292.638L57.559 301.701L31.7696 300.322L-3.31023 257.847L30.8834 214.442ZM31.3687 215.442L-2.02552 257.833L32.2612 299.347L57.1626 300.678L65.1355 292.581L36.2668 257.852L62.9171 223.121L54.9361 215.442H31.3687ZM59.382 305.656H70.6728L78.6865 349.512L124.559 355.843V365.519L106.002 383.904L51.1584 375.687L40.8096 323.597L59.382 305.656ZM59.7861 306.656L41.8967 323.937L52.0021 374.802L105.655 382.841L123.559 365.102V356.715L77.8329 350.403L69.8389 306.656H59.7861ZM128.304 370.229H138.741L143.193 414.982L186.845 419.958L185.907 432.812L168.255 450.738L114.707 442.055L109.308 388.6L128.304 370.229ZM128.708 371.229L110.352 388.982L115.625 441.191L167.905 449.668L184.937 432.372L185.778 420.842L142.277 415.884L137.836 371.229H128.708Z" fill="#081E3D"/>
</g>
</svg>
