<svg width="248" height="153" viewBox="41 4 190 153" fill="none" xmlns="http://www.w3.org/2000/svg">
<path fill-rule="evenodd" clip-rule="evenodd" d="M159.119 110.564L163.555 114.891L163.711 130.626L136.68 150.999L110.12 130.279L109.963 114.545L114.312 110.131L136.455 128.271L159.119 110.564ZM156.449 107.093L136.402 123.027L116.921 107.483L136.916 86.3045L156.449 107.093ZM159.05 103.571L139.516 82.782L149.083 73.0714L163.137 72.9331L163.424 101.779C162.04 103.891 159.931 103.854 159.05 103.571ZM124.479 72.4395L134.246 82.8339L114.251 104.012C113.373 104.021 111.259 103.517 109.833 101.433L109.546 72.5865L124.479 72.4395ZM195.638 72.6131L167.529 72.8898L167.825 102.61L191.507 98.8802L195.638 72.6131ZM200.039 73.4439L205.309 73.392L215.963 84.652L211.032 118.795L177.705 124.368L167.051 113.108L166.99 106.99L195.055 102.342L200.039 73.4439ZM106.328 102.342L106.033 72.6211L78.2533 72.8946L81.6896 98.2131L106.328 102.342ZM105.493 106.721L105.554 112.84L95.1263 124.307L62.5647 118.508L56.9466 83.595L68.2528 72.1188L73.5232 72.067L78.2107 101.744L105.493 106.721ZM105.842 53.3902L96.0748 42.9958L76.9499 63.291C76.0046 65.3985 77.762 67.6541 78.7589 68.5185L105.989 68.2504L105.842 53.3902ZM167.338 53.6589L167.486 68.5192L194.716 68.251C195.583 67.0769 197.139 64.5555 196.43 63.8631L177.775 43.0656L167.338 53.6589ZM241.828 34.7758L248.036 34.9764L258.848 46.458L252.793 79.6592L219.147 82.2828L208.335 70.8011L208.537 64.623L237.175 63.0746L241.828 34.7758ZM237.502 34.0175L233.571 59.2474L208.658 60.9162L208.984 31.8591L237.502 34.0175ZM237.022 29.6728L208.505 27.5144L208.948 13.9226L219.204 4.35861L239.026 25.4083C239.442 27.8956 237.863 29.2877 237.022 29.6728ZM190.4 30.0217L204.659 31.1009L204.332 60.158C203.691 60.7557 201.792 61.8076 199.325 61.2331L179.503 40.1834L190.4 30.0217ZM25.3646 33.2552L31.5745 33.1152L35.9479 61.4581L64.5699 63.2857L64.7106 69.4655L53.786 80.8411L20.168 77.8896L14.44 44.6309L25.3646 33.2552ZM39.5894 57.6662L35.9074 32.3992L64.4449 30.519L64.4854 59.5778L39.5894 57.6662ZM64.9674 26.1791L36.4299 28.0593C35.5925 27.666 34.0279 26.2586 34.4684 23.7755L54.4967 2.92014L64.6578 12.5837L64.9674 26.1791ZM68.7778 29.803L83.0466 28.8629L93.8427 39.1304L73.8144 59.9857C71.3417 60.5361 69.4534 59.4658 68.8183 58.8618L68.7778 29.803ZM60.5308 2.25773L69.393 10.0384L69.5407 24.8987L84.4735 24.7516L109.321 49.8593L109.512 69.0902L127.08 68.9172L137.734 80.1771L147.283 68.7183L163.973 68.554L163.799 51.0713L188.151 26.3535L204.84 26.1892L204.71 13.0772L217.764 0.709614L60.5308 2.25773Z" fill="white"/>
<path d="M10.5283 41.4011L48.5569 2.22459L-4 2.74206L-3.80335 22.5216L10.5283 41.4011Z" fill="white"/>
<path d="M260.164 42.7469L220.753 0.528752L264.136 0.1016L274.456 -1.29706e-05L274.456 23.0114L260.164 42.7469Z" fill="white"/>
</svg>
