<svg width="30" height="30" viewBox="0 0 30 30" fill="none" xmlns="http://www.w3.org/2000/svg">
<path d="M15 27.5C21.9036 27.5 27.5 21.9036 27.5 15C27.5 8.09644 21.9036 2.5 15 2.5C8.09644 2.5 2.5 8.09644 2.5 15C2.5 21.9036 8.09644 27.5 15 27.5Z" fill="#081E3D"/>
<path d="M15 8.85138C17.0026 8.85138 17.2398 8.859 18.0306 8.89506C18.7619 8.92844 19.159 9.05063 19.4233 9.15331C19.7734 9.28938 20.0232 9.45188 20.2856 9.71431C20.5481 9.97681 20.7106 10.2266 20.8467 10.5767C20.9494 10.841 21.0716 11.2381 21.1049 11.9693C21.141 12.7602 21.1486 12.9974 21.1486 14.9999C21.1486 17.0026 21.141 17.2398 21.1049 18.0306C21.0716 18.7619 20.9494 19.1589 20.8467 19.4233C20.7106 19.7733 20.5481 20.0232 20.2857 20.2856C20.0232 20.5481 19.7734 20.7106 19.4233 20.8466C19.159 20.9494 18.7619 21.0715 18.0306 21.1049C17.2399 21.1409 17.0028 21.1486 15 21.1486C12.9973 21.1486 12.7601 21.1409 11.9694 21.1049C11.2381 21.0715 10.841 20.9494 10.5767 20.8466C10.2266 20.7106 9.97681 20.5481 9.71438 20.2856C9.45194 20.0232 9.28937 19.7733 9.15331 19.4233C9.05062 19.1589 8.92844 18.7619 8.89506 18.0306C8.859 17.2398 8.85137 17.0026 8.85137 14.9999C8.85137 12.9974 8.859 12.7602 8.89506 11.9693C8.92844 11.2381 9.05062 10.841 9.15331 10.5767C9.28937 10.2266 9.45188 9.97681 9.71438 9.71438C9.97681 9.45188 10.2266 9.28938 10.5767 9.15331C10.841 9.05063 11.2381 8.92844 11.9694 8.89506C12.7602 8.859 12.9974 8.85138 15 8.85138ZM15 7.5C12.9631 7.5 12.7077 7.50862 11.9078 7.54512C11.1095 7.58156 10.5642 7.70831 10.0872 7.89375C9.594 8.08538 9.17575 8.34181 8.75881 8.75881C8.34181 9.17575 8.08538 9.594 7.89375 10.0872C7.70831 10.5642 7.58156 11.1094 7.54512 11.9078C7.50862 12.7077 7.5 12.9631 7.5 14.9999C7.5 17.0369 7.50862 17.2923 7.54512 18.0922C7.58156 18.8905 7.70831 19.4357 7.89375 19.9128C8.08538 20.4059 8.34181 20.8242 8.75881 21.2412C9.17575 21.6581 9.594 21.9146 10.0872 22.1062C10.5642 22.2916 11.1095 22.4184 11.9078 22.4548C12.7077 22.4913 12.9631 22.4999 15 22.4999C17.0369 22.4999 17.2923 22.4913 18.0922 22.4548C18.8905 22.4184 19.4358 22.2916 19.9128 22.1062C20.406 21.9146 20.8243 21.6581 21.2412 21.2412C21.6581 20.8242 21.9146 20.4059 22.1062 19.9128C22.2917 19.4357 22.4184 18.8905 22.4549 18.0922C22.4914 17.2923 22.5 17.0369 22.5 14.9999C22.5 12.9631 22.4914 12.7077 22.4549 11.9078C22.4184 11.1094 22.2917 10.5642 22.1062 10.0872C21.9146 9.594 21.6581 9.17575 21.2412 8.75881C20.8243 8.34181 20.406 8.08538 19.9128 7.89375C19.4358 7.70831 18.8905 7.58156 18.0922 7.54512C17.2923 7.50862 17.0369 7.5 15 7.5Z" fill="white"/>
<path d="M15.0037 11.1519C12.8766 11.1519 11.1523 12.8761 11.1523 15.0032C11.1523 17.1302 12.8766 18.8545 15.0037 18.8545C17.1307 18.8545 18.855 17.1302 18.855 15.0032C18.855 12.8761 17.1307 11.1519 15.0037 11.1519ZM15.0037 17.5032C13.623 17.5032 12.5037 16.3839 12.5037 15.0032C12.5037 13.6225 13.623 12.5032 15.0037 12.5032C16.3844 12.5032 17.5037 13.6225 17.5037 15.0032C17.5037 16.3839 16.3844 17.5032 15.0037 17.5032Z" fill="white"/>
<path d="M19.9064 10.9977C19.9064 11.4947 19.5035 11.8977 19.0064 11.8977C18.5094 11.8977 18.1064 11.4947 18.1064 10.9977C18.1064 10.5007 18.5094 10.0977 19.0064 10.0977C19.5035 10.0977 19.9064 10.5007 19.9064 10.9977Z" fill="white"/>
</svg>
