<svg width="45" height="60" viewBox="0 0 45 60" fill="none" xmlns="http://www.w3.org/2000/svg">
<path d="M30 15C34.1426 15 37.5 11.6426 37.5 7.5C37.5 3.35742 34.1426 0 30 0C25.8574 0 22.5 3.35742 22.5 7.5C22.5 11.6426 25.8574 15 30 15ZM26.4105 34.8926C28.0582 36.852 30.9809 37.1297 32.9695 35.5043L43.282 27.0645C45.2848 25.4262 45.5777 22.4719 43.9406 20.4691C42.3035 18.4641 39.348 18.1734 37.3418 19.8105L30.6105 25.3184L26.0508 19.8914C24.2414 17.7363 21.4547 16.6195 18.5508 16.923C15.716 17.2137 13.248 18.8297 11.9449 21.2496L6.15938 32.0344C3.41719 37.1484 5.14102 43.3277 10.166 46.5363L15.4172 50.625H4.6875C2.09883 50.625 0 52.7238 0 55.3125C0 57.9012 2.09883 60 4.6875 60H29.0625C33.0563 60 35.3637 54.9855 32.3766 51.9984L19.5023 39.1242L23.5805 31.5223L26.4105 34.8926Z" fill="white"/>
</svg>
