<svg width="25" height="25" viewBox="0 0 25 25" fill="none" xmlns="http://www.w3.org/2000/svg">
<circle cx="12.5" cy="12.5" r="12.5" fill="#081E3D"/>
<path d="M12.5 6C8.91015 6 6 8.91015 6 12.5C6 16.0899 8.91015 19 12.5 19C16.0899 19 19 16.0899 19 12.5C19 8.91015 16.0899 6 12.5 6ZM16.6203 9.70703H15.4354C15.2991 9.13541 15.1224 8.60983 14.9126 8.14515C15.3135 8.36798 15.6858 8.64781 16.019 8.98104C16.2442 9.20625 16.4449 9.44942 16.6203 9.70703ZM17.4766 12.5C17.4766 12.9344 17.4209 13.3602 17.3137 13.7695H15.6878C15.7285 13.3589 15.75 12.9345 15.75 12.5C15.75 12.0655 15.7285 11.6411 15.6878 11.2305H17.3137C17.4209 11.6398 17.4766 12.0656 17.4766 12.5ZM12.5 17.4766C12.368 17.4766 11.9656 17.217 11.5645 16.4149C11.3984 16.0826 11.2558 15.7041 11.1392 15.293H13.8608C13.7442 15.7041 13.6016 16.0826 13.4355 16.4149C13.0344 17.217 12.632 17.4766 12.5 17.4766ZM10.8449 13.7695C10.798 13.357 10.7734 12.9309 10.7734 12.5C10.7734 12.0691 10.798 11.643 10.8449 11.2305H14.1551C14.202 11.643 14.2266 12.0691 14.2266 12.5C14.2266 12.9309 14.202 13.357 14.1551 13.7695H10.8449ZM7.52344 12.5C7.52344 12.0656 7.57907 11.6398 7.68629 11.2305H9.31216C9.27151 11.6411 9.25 12.0655 9.25 12.5C9.25 12.9345 9.27151 13.3589 9.31216 13.7695H7.68629C7.57907 13.3602 7.52344 12.9344 7.52344 12.5ZM12.5 7.52344C12.632 7.52344 13.0344 7.78296 13.4355 8.5851C13.6016 8.91738 13.7442 9.29588 13.8608 9.70703H11.1392C11.2558 9.29591 11.3984 8.91738 11.5645 8.5851C11.9656 7.78296 12.368 7.52344 12.5 7.52344ZM10.0874 8.14515C9.87753 8.60983 9.70086 9.13539 9.56464 9.70703H8.37974C8.55516 9.44942 8.75582 9.20625 8.98104 8.98104C9.31426 8.64781 9.68654 8.36798 10.0874 8.14515ZM8.37974 15.293H9.56464C9.70086 15.8646 9.87755 16.3902 10.0874 16.8548C9.68654 16.632 9.31424 16.3522 8.98104 16.019C8.75582 15.7937 8.55513 15.5506 8.37974 15.293ZM14.9126 16.8548C15.1225 16.3902 15.2991 15.8646 15.4354 15.293H16.6203C16.4448 15.5506 16.2442 15.7937 16.019 16.019C15.6857 16.3522 15.3135 16.632 14.9126 16.8548Z" fill="white"/>
<path d="M12.5 6C8.91015 6 6 8.91015 6 12.5C6 16.0899 8.91015 19 12.5 19C16.0899 19 19 16.0899 19 12.5C19 8.91015 16.0899 6 12.5 6ZM16.6203 9.70703H15.4354C15.2991 9.13541 15.1224 8.60983 14.9126 8.14515C15.3135 8.36798 15.6858 8.64781 16.019 8.98104C16.2442 9.20625 16.4449 9.44942 16.6203 9.70703ZM17.4766 12.5C17.4766 12.9344 17.4209 13.3602 17.3137 13.7695H15.6878C15.7285 13.3589 15.75 12.9345 15.75 12.5C15.75 12.0655 15.7285 11.6411 15.6878 11.2305H17.3137C17.4209 11.6398 17.4766 12.0656 17.4766 12.5ZM12.5 17.4766C12.368 17.4766 11.9656 17.217 11.5645 16.4149C11.3984 16.0826 11.2558 15.7041 11.1392 15.293H13.8608C13.7442 15.7041 13.6016 16.0826 13.4355 16.4149C13.0344 17.217 12.632 17.4766 12.5 17.4766ZM10.8449 13.7695C10.798 13.357 10.7734 12.9309 10.7734 12.5C10.7734 12.0691 10.798 11.643 10.8449 11.2305H14.1551C14.202 11.643 14.2266 12.0691 14.2266 12.5C14.2266 12.9309 14.202 13.357 14.1551 13.7695H10.8449ZM7.52344 12.5C7.52344 12.0656 7.57907 11.6398 7.68629 11.2305H9.31216C9.27151 11.6411 9.25 12.0655 9.25 12.5C9.25 12.9345 9.27151 13.3589 9.31216 13.7695H7.68629C7.57907 13.3602 7.52344 12.9344 7.52344 12.5ZM12.5 7.52344C12.632 7.52344 13.0344 7.78296 13.4355 8.5851C13.6016 8.91738 13.7442 9.29588 13.8608 9.70703H11.1392C11.2558 9.29591 11.3984 8.91738 11.5645 8.5851C11.9656 7.78296 12.368 7.52344 12.5 7.52344ZM10.0874 8.14515C9.87753 8.60983 9.70086 9.13539 9.56464 9.70703H8.37974C8.55516 9.44942 8.75582 9.20625 8.98104 8.98104C9.31426 8.64781 9.68654 8.36798 10.0874 8.14515ZM8.37974 15.293H9.56464C9.70086 15.8646 9.87755 16.3902 10.0874 16.8548C9.68654 16.632 9.31424 16.3522 8.98104 16.019C8.75582 15.7937 8.55513 15.5506 8.37974 15.293ZM14.9126 16.8548C15.1225 16.3902 15.2991 15.8646 15.4354 15.293H16.6203C16.4448 15.5506 16.2442 15.7937 16.019 16.019C15.6857 16.3522 15.3135 16.632 14.9126 16.8548Z" stroke="#081E3D"/>
</svg>
