<svg width="280" height="153" viewBox="0 0 280 153" fill="none" xmlns="http://www.w3.org/2000/svg">
<path fill-rule="evenodd" clip-rule="evenodd" d="M164.071 110.681L168.507 115.009L168.663 130.743L141.633 151.116L115.072 130.396L114.916 114.662L119.264 110.248L141.407 128.389L164.071 110.681ZM161.401 107.211L141.355 123.144L121.873 107.6L141.868 86.4217L161.401 107.211ZM164.002 103.688L144.468 82.8992L154.035 73.1886L168.09 73.0502L168.376 101.897C166.992 104.008 164.883 103.971 164.002 103.688ZM129.431 72.5567L139.198 82.9511L119.203 104.129C118.325 104.138 116.212 103.634 114.785 101.55L114.499 72.7037L129.431 72.5567ZM200.59 72.7302L172.482 73.007L172.777 102.727L196.459 98.9974L200.59 72.7302ZM204.991 73.5611L210.261 73.5092L220.915 84.7691L215.984 118.912L182.657 124.486L172.003 113.226L171.942 107.107L200.007 102.459L204.991 73.5611ZM111.28 102.459L110.985 72.7383L83.2055 73.0118L86.6418 98.3302L111.28 102.459ZM110.445 106.838L110.506 112.957L100.078 124.424L67.5169 118.626L61.8988 83.7122L73.205 72.236L78.4754 72.1841L83.1629 101.861L110.445 106.838ZM110.794 53.5074L101.027 43.1129L81.9021 63.4082C80.9568 65.5157 82.7142 67.7713 83.7111 68.6357L110.941 68.3676L110.794 53.5074ZM172.29 53.7761L172.438 68.6363L199.669 68.3682C200.535 67.1941 202.092 64.6727 201.382 63.9803L182.727 43.1827L172.29 53.7761ZM246.78 34.893L252.988 35.0936L263.8 46.5752L257.745 79.7764L224.099 82.4L213.287 70.9183L213.489 64.7402L242.128 63.1918L246.78 34.893ZM242.454 34.1347L238.524 59.3646L213.61 61.0334L213.936 31.9763L242.454 34.1347ZM241.974 29.79L213.457 27.6316L213.9 14.0398L224.156 4.4758L243.978 25.5255C244.394 28.0128 242.816 29.4049 241.974 29.79ZM195.352 30.1388L209.611 31.2181L209.284 60.2752C208.643 60.8729 206.744 61.9248 204.277 61.3503L184.455 40.3006L195.352 30.1388ZM30.3168 33.3724L36.5267 33.2324L40.9001 61.5752L69.5221 63.4029L69.6628 69.5827L58.7383 80.9583L25.1202 78.0067L19.3922 44.7481L30.3168 33.3724ZM44.5416 57.7833L40.8596 32.5164L69.3971 30.6362L69.4376 59.695L44.5416 57.7833ZM69.9196 26.2963L41.3821 28.1765C40.5447 27.7832 38.9801 26.3758 39.4206 23.8927L59.4489 3.03731L69.61 12.7008L69.9196 26.2963ZM73.73 29.9201L87.9988 28.98L98.7949 39.2475L78.7666 60.1029C76.2939 60.6533 74.4056 59.583 73.7705 58.979L73.73 29.9201ZM65.483 2.37492L74.3452 10.1556L74.4929 25.0159L89.4257 24.8688L114.273 49.9765L114.464 69.2074L132.032 69.0344L142.686 80.2943L152.235 68.8355L168.925 68.6712L168.751 51.1885L193.103 26.4707L209.793 26.3064L209.662 13.1944L222.716 0.826801L65.483 2.37492Z" fill="white"/>
<path d="M15.4805 41.5179L53.5091 2.34141L0.952163 2.85888L1.14882 22.6384L15.4805 41.5179Z" fill="white"/>
<path d="M265.116 42.8637L225.705 0.645573L269.088 0.218422L279.408 0.116808L279.408 23.1283L265.116 42.8637Z" fill="white"/>
</svg>
