<svg width="50" height="50" viewBox="0 0 50 50" fill="none" xmlns="http://www.w3.org/2000/svg">
<path fill-rule="evenodd" clip-rule="evenodd" d="M25 50C38.807 50 50 38.807 50 25C50 11.1929 38.807 0 25 0C11.1929 0 0 11.1929 0 25C0 38.807 11.1929 50 25 50ZM26.875 10C26.875 8.96447 26.0355 8.125 25 8.125C23.9645 8.125 23.125 8.96447 23.125 10V10.7918C19.0489 11.5217 15.625 14.584 15.625 18.75C15.625 23.543 20.157 26.875 25 26.875C28.4412 26.875 30.625 29.1392 30.625 31.25C30.625 33.3607 28.4412 35.625 25 35.625C21.5588 35.625 19.375 33.3607 19.375 31.25C19.375 30.2145 18.5355 29.375 17.5 29.375C16.4645 29.375 15.625 30.2145 15.625 31.25C15.625 35.416 19.0489 38.4783 23.125 39.2083V40C23.125 41.0355 23.9645 41.875 25 41.875C26.0355 41.875 26.875 41.0355 26.875 40V39.2083C30.951 38.4783 34.375 35.416 34.375 31.25C34.375 26.457 29.843 23.125 25 23.125C21.5588 23.125 19.375 20.8608 19.375 18.75C19.375 16.6393 21.5588 14.375 25 14.375C28.4412 14.375 30.625 16.6393 30.625 18.75C30.625 19.7855 31.4645 20.625 32.5 20.625C33.5355 20.625 34.375 19.7855 34.375 18.75C34.375 14.584 30.951 11.5217 26.875 10.7918V10Z" fill="white"/>
</svg>
