<?xml version="1.0" encoding="utf-8"?>
<!-- Generator: Adobe Illustrator 28.4.1, SVG Export Plug-In . SVG Version: 6.00 Build 0)  -->
<svg version="1.1" id="Layer_1" xmlns="http://www.w3.org/2000/svg" xmlns:xlink="http://www.w3.org/1999/xlink" x="0px" y="0px" width="550" height="200"
	 viewBox="150 210 540 200" xml:space="preserve">
<style type="text/css">
	.st0{fill:#0EA64C;}
	.st1{fill:#294D83;}
	.st2{fill:#AB1F26;}
	.st3{clip-path:url(#SVGID_00000119088749500206361610000009218636562648841865_);}
	.st4{fill:#1A345F;}
	.st5{fill:#294D83;stroke:#294D83;stroke-miterlimit:10;}
	.st6{fill:#E85138;stroke:#E85138;stroke-width:0.439;stroke-miterlimit:10;}
	.st7{fill-rule:evenodd;clip-rule:evenodd;fill:#E85138;stroke:#E85138;stroke-width:0.5148;stroke-miterlimit:10;}
	.st8{fill-rule:evenodd;clip-rule:evenodd;fill:#294D83;}
	.st9{fill:#FAC315;}
	.st10{fill:#E85138;}
	.st11{fill:#E85138;stroke:#E85138;stroke-width:0.4107;stroke-miterlimit:10;}
	.st12{fill:#FFFFFF;}
</style>
<g>
	<rect x="237.01" y="250.83" class="st0" width="15.09" height="11.89"/>
	<rect x="275.68" y="233.36" class="st1" width="13.55" height="92.02"/>
	<path class="st1" d="M400.46,265.24H358.6v7.98h26.26c12.22,0,18.26,4.58,18.26,13.76v26.77H391.3v-22.79
		c0-7.04-3.86-10.63-11.44-10.63h-16.61c-6.64,0-9.97,3.12-9.97,9.43v17.87l3.2,6.11h-14.49h-7.1v-31.95c0-6.51-3.4-9.83-10.18-9.83
		h-17.81v9.89h11.77c1.67,0.46,2.58,1.86,2.58,4.12v27.77H302.6v11.63h39.4h74.76v-43.78C416.75,270.7,411.3,265.24,400.46,265.24z
		 M377.54,313.75h-7.89l-3.19-5.44v-11.76c0-3.85,1.86-5.78,5.58-5.78c3.72,0,5.51,1.93,5.51,5.78V313.75z"/>
	<path class="st1" d="M444.17,224.78v-3.52c0-2.66-1.05-3.92-3.32-3.92h-8.36v10.29h-1.93v3.46h13.61v-3.46h-7.89v-6.84
		c0.79,0,1.4,0,1.92,0c0.94,0,1.47,0.07,1.74,0.2c0.26,0.13,0.4,0.53,0.4,0.93v2.85H444.17z"/>
	<rect x="430.56" y="233.36" class="st1" width="13.61" height="92.02"/>
	<path class="st1" d="M234.63,271.96c-8.52,0-12.7,4.45-12.7,13.22v20.74l4.78,7.83h-30.82v-31.56l-13.69,11.16v32.03l80.47,0.14
		v-53.56H234.63z M248.9,313.75h-7.71l-5.65-7.91v-15.48c0-4.38,2-6.57,5.92-6.57h7.44V313.75z"/>
</g>
<g>
	<path class="st2" d="M208.24,379.2l-4.31-12.36l-13.75,0.2l-4.39,12.15h-4.65l14.35-36.36l7.18-1.19l13.47,37.54H208.24z
		 M202.79,363.32l-5.56-15.75l-5.66,15.75H202.79z"/>
	<path class="st2" d="M266.38,379.2v-16.47H249.9v16.47h-7.38v-36.68h7.38v16.16h16.48v-16.16h7.45v36.68H266.38z"/>
	<path class="st2" d="M304.47,342.84c0.71-0.04,1.65-0.12,2.7-0.26c1.06-0.06,2.13-0.13,3.32-0.26c1.14,0,2.27-0.07,3.46-0.14
		c1.2-0.06,2.26-0.06,3.32-0.06c2.94,0,5.65,0.33,8.05,1c2.46,0.59,4.58,1.65,6.25,3.06c1.73,1.39,3.12,3.18,4.05,5.31
		c0.94,2.27,1.47,4.85,1.47,7.96c0,3-0.4,5.72-1.2,8.25c-0.67,2.46-1.93,4.59-3.59,6.32c-1.59,1.79-3.72,3.13-6.25,4.05
		c-2.59,1-5.71,1.4-9.38,1.4c-0.99,0-2.05,0-3.24,0c-1.08,0-2.12-0.07-3.26-0.13c-1.06-0.07-2.12-0.14-3.12-0.21
		c-0.99-0.06-1.86-0.13-2.57-0.19V342.84z M311.82,375.55c0.28,0.06,0.53,0.06,0.87,0.13c0.34,0,0.66,0.06,1,0.13
		c0.4,0,0.8,0,1.06,0c0.4,0.07,0.67,0.07,0.87,0.07c2.19,0,4.05-0.2,5.51-0.47c1.47-0.19,2.8-0.73,3.86-1.53
		c0.53-0.4,1.06-0.93,1.6-1.59c0.53-0.6,0.93-1.52,1.32-2.59c0.33-1,0.67-2.33,0.8-3.93c0.27-1.52,0.34-3.45,0.34-5.71
		c0-2.86-0.34-5.25-1-7.1c-0.8-1.81-1.74-3.26-2.93-4.33c-1.19-0.99-2.57-1.72-4.24-2.12c-1.6-0.4-3.33-0.59-5.19-0.59
		c-0.26,0-0.59,0-0.93,0c-0.4,0-0.73,0-1.06,0.05c-0.4,0-0.73,0-1.07,0.07c-0.33,0.07-0.6,0.07-0.8,0.14V375.55z"/>
	<path class="st2" d="M389.44,379.2l-4.26-12.36l-13.68,0.2l-4.39,12.15h-4.72l14.42-36.36l7.17-1.19l13.44,37.54H389.44z
		 M383.98,363.32l-5.45-15.75l-5.72,15.75H383.98z"/>
	<path class="st2" d="M431.16,379.2h-7.31v-36.68h21.4l-0.34,3.72l-13.75,0.2v13.01l13.29,0.14l-0.27,3.39l-13.01,0.26V379.2z"/>
</g>
<path class="st1" d="M610.83,226.56c3.53,2.31,7.26,4.36,10.55,6.97c15.34,12.14,24.37,28.29,29.22,46.97
	c0.8,3.1,0.74,6.23-1.25,9.06c-1.31,1.88-1.19,3.59,0.39,5.53c3.15,3.87,5.99,7.99,8.98,11.99c3.44,4.6,2.54,7.62-2.9,9.54
	c-3.24,1.15-3.84,1.97-2.21,5.17c1.99,3.91,1.17,6.77-2.37,9.23c2.18,2.67,2.58,4.78-1.03,6.65c-0.75,0.39-0.46,3.35-0.18,5.05
	c0.27,1.67,1.27,3.21,1.69,4.88c1.5,6.04-1.4,10.06-7.63,10.5c-4.37,0.31-8.76,0.33-13.13,0.59c-8.71,0.51-16.85,2.86-24.19,7.7
	c-6.89,4.54-13.56,9.48-21.72,11.68c-6.52,1.76-13.04,2.28-19.59,0.25c-0.93-0.29-1.82-0.72-2.65-1.05
	c33.85-8.23,58.62-27.18,69.6-60.79c11.07-33.87,2-63.62-21.98-89.28C610.54,226.98,610.69,226.77,610.83,226.56z"/>
<path class="st1" d="M545.92,374.07c-21.7-0.41-40.51-7.14-56.42-21.31c44.56,28.48,95.07,9.06,116.27-24.78
	c22.2-35.43,15.72-84.69-22.3-112.33c24.87,11.81,48.87,42.12,45.07,82.56c-3.49,37.12-32.34,70.35-75.27,75.55"/>
<path class="st2" d="M477.14,332.33c3.65,1.53,7.32,3.01,10.94,4.58c15.99,6.93,32.65,10.48,50.07,9.15
	c23.55-1.79,43.66-11.46,60.9-27.44c3.15-2.92,6.55-5.55,9.39-8.77c-6.11,15.33-26.18,36.87-53.99,43.99
	C523.03,361.88,496.96,352.83,477.14,332.33z"/>
<path class="st1" d="M607.16,299.44c-12.95,15.99-27.89,27.81-47.16,33.46c-22.31,6.54-44.56,7.2-66.58-1.24
	c-8.23-3.16-15.06-8.03-19.26-13.24c22,10.04,45.25,9.77,68.49,7.83C566.59,324.25,586.89,312.76,607.16,299.44z"/>
<g>
	<g>
		<defs>
			<path id="SVGID_1_" d="M607.95,289.4c-0.15,0.22-17.53,20.09-75.45,25.89c-6.69,0.67-13.24,0.9-19.57,0.9
				c-34.3,0-50.83-10.01-50.99-10.16c0,0-4.89-34.3,6.02-52.28c12.26-20.16,40.99-26.85,54.99-26.85c8.34,0,16.92-0.97,25.33-2.63
				c29.49-5.94,55.23,13.31,60.72,51.83L607.95,289.4z"/>
		</defs>
		<clipPath id="SVGID_00000143582324644934655630000006558977310266011823_">
			<use xlink:href="#SVGID_1_"  style="overflow:visible;"/>
		</clipPath>
		<g style="clip-path:url(#SVGID_00000143582324644934655630000006558977310266011823_);">
			<g>
				<polygon class="st0" points="498.86,281.51 498.65,282.93 512.26,295.57 518.82,289.1 518.66,279.99 499.78,280.3 				"/>
				<polygon class="st0" points="537.84,270.37 524.23,257.73 522.71,257.96 521.59,258.86 521.82,276.99 531.29,276.84 				"/>
				<polygon class="st0" points="555.45,257.28 542.29,270.29 549.06,276.61 558.53,276.47 558.22,258.33 557.01,257.51 				"/>
				<polygon class="st0" points="581.77,281.8 581.55,280.3 580.64,279.18 561.7,279.4 561.83,288.42 568.6,294.74 				"/>
				<polygon class="st0" points="582,313.17 582.23,311.67 568.6,299.02 561.99,305.58 562.14,314.61 581.09,314.3 				"/>
				<polygon class="st0" points="543.04,324.3 556.58,336.88 558.15,336.73 559.35,335.82 559.06,317.69 549.57,317.84 				"/>
				<polygon class="st0" points="525.42,337.31 538.59,324.38 531.75,318.06 522.33,318.22 522.64,336.34 523.86,337.09 				"/>
				<polygon class="st0" points="499.09,312.87 499.33,314.3 500.22,315.51 519.11,315.29 519.03,306.18 512.26,299.86 				"/>
			</g>
			<g>
				<polygon class="st1" points="580.79,276.16 577.86,260.43 561.38,258.1 561.38,260.43 561.7,276.39 578.31,276.16 				"/>
				<polygon class="st1" points="540.02,268.19 551.7,256.68 553.33,255.11 539.64,245.93 526.35,255.47 527.98,257.13 
					527.98,257.13 				"/>
				<polygon class="st1" points="499.48,277.29 502.03,277.29 518.66,277.06 518.37,261.05 518.37,258.71 501.97,261.49 				"/>
				<polygon class="st1" points="593.67,297.23 594.19,296.55 584.18,283.77 582.52,285.42 571.61,296.17 571.53,296.17 
					570.8,296.93 582.74,308.06 582.74,308.06 584.48,309.72 				"/>
				<polygon class="st1" points="500.09,318.51 502.92,334.24 519.48,336.49 519.4,334.24 519.26,318.22 502.56,318.44 				"/>
				<polygon class="st1" points="527.47,339.58 541.14,348.76 554.53,339.21 552.74,337.54 552.74,337.54 540.85,326.41 
					529.26,337.93 				"/>
				<polygon class="st1" points="581.31,317.31 578.91,317.31 562.14,317.61 562.37,333.56 562.51,335.89 578.91,333.19 				"/>
				<polygon class="st1" points="498.36,309.19 509.25,298.43 509.32,298.43 510.08,297.68 498.12,286.62 498.12,286.62 
					496.37,284.96 487.29,297.37 487.21,297.37 486.69,298.05 496.69,310.83 				"/>
			</g>
			<g>
				<polygon class="st2" points="583.94,276.09 587.55,276.01 594.77,269.02 590.81,247.73 568.38,244.57 561.3,251.56 
					561.3,255.11 580.58,257.73 				"/>
				<polygon class="st2" points="539.64,242.16 555.53,252.84 558.15,250.36 557.93,240.51 539.41,228.1 521.28,241.11 
					521.36,250.88 524.07,253.29 				"/>
				<polygon class="st2" points="496.37,277.29 499.17,258.93 518.27,255.69 518.27,252.17 510.91,245.4 488.63,249.09 
					485.33,270.59 492.69,277.36 				"/>
				<polygon class="st2" points="612.69,296.32 599.24,278.94 588.99,279.02 586.43,281.58 597.43,295.8 598.48,296.93 
					586.74,311.81 589.44,314.3 599.6,314.08 612.16,297 612.16,297 				"/>
				<polygon class="st2" points="500.32,336.88 496.92,318.51 493.23,318.59 486.17,325.58 490.01,346.95 512.41,350.12 
					519.63,343.05 519.48,339.58 				"/>
				<polygon class="st2" points="556.8,341.31 541.22,352.45 525.2,341.76 522.71,344.32 522.85,354.1 541.46,366.51 559.58,353.57 
					559.42,343.79 				"/>
				<polygon class="st2" points="584.48,317.31 581.71,335.74 562.51,338.97 562.67,342.44 569.96,349.28 592.23,345.6 
					595.47,324.08 588.17,317.23 				"/>
				<polygon class="st2" points="494.44,313.02 483.37,298.8 483.45,298.8 482.92,298.13 494.07,282.85 491.43,280.38 
					481.27,280.52 468.7,297.68 468.7,297.68 468.17,298.36 481.65,315.73 491.96,315.58 				"/>
			</g>
		</g>
	</g>
</g>
</svg>
